<svg class="plot-f53a51b5eeeda" fill="currentColor" font-family="system-ui, sans-serif" font-size="10" text-anchor="middle" width="250" height="250" viewBox="0 0 250 250" xmlns="http://www.w3.org/2000/svg" xmlns:xlink="http://www.w3.org/1999/xlink"><style>
        .plot-f53a51b5eeeda {
          display: block;
          background: white;
          height: auto;
          height: intrinsic;
          max-width: 100%;
        }
        .plot-f53a51b5eeeda text,
        .plot-f53a51b5eeeda tspan {
          white-space: pre;
        }
      </style><g aria-label="y-axis" transform="translate(40,0)" fill="none" text-anchor="end" font-variant="tabular-nums"><g class="tick" opacity="1" transform="translate(0,208.2204527672578)"><line stroke="currentColor" x2="-6"/><line stroke="currentColor" x2="190" stroke-opacity="0.1"/><text fill="currentColor" x="-9" dy="0.32em">0.5</text></g><g class="tick" opacity="1" transform="translate(0,172.88849528652057)"><line stroke="currentColor" x2="-6"/><line stroke="currentColor" x2="190" stroke-opacity="0.1"/><text fill="currentColor" x="-9" dy="0.32em">1.0</text></g><g class="tick" opacity="1" transform="translate(0,137.55653780578336)"><line stroke="currentColor" x2="-6"/><line stroke="currentColor" x2="190" stroke-opacity="0.1"/><text fill="currentColor" x="-9" dy="0.32em">1.5</text></g><g class="tick" opacity="1" transform="translate(0,102.22458032504616)"><line stroke="currentColor" x2="-6"/><line stroke="currentColor" x2="190" stroke-opacity="0.1"/><text fill="currentColor" x="-9" dy="0.32em">2.0</text></g><g class="tick" opacity="1" transform="translate(0,66.89262284430895)"><line stroke="currentColor" x2="-6"/><line stroke="currentColor" x2="190" stroke-opacity="0.1"/><text fill="currentColor" x="-9" dy="0.32em">2.5</text></g><g class="tick" opacity="1" transform="translate(0,31.56066536357175)"><line stroke="currentColor" x2="-6"/><line stroke="currentColor" x2="190" stroke-opacity="0.1"/><text fill="currentColor" x="-9" dy="0.32em">3.0</text></g></g><g aria-label="x-axis" transform="translate(0,220)" fill="none" text-anchor="middle" font-variant="tabular-nums"><g class="tick" opacity="1" transform="translate(92.1258969727372,0)"><line stroke="currentColor" y2="6"/><line stroke="currentColor" y2="-200" stroke-opacity="0.1"/><text fill="currentColor" y="9" dy="0.71em">1.0</text></g><g class="tick" opacity="1" transform="translate(137.87608158818807,0)"><line stroke="currentColor" y2="6"/><line stroke="currentColor" y2="-200" stroke-opacity="0.1"/><text fill="currentColor" y="9" dy="0.71em">1.5</text></g><g class="tick" opacity="1" transform="translate(183.62626620363892,0)"><line stroke="currentColor" y2="6"/><line stroke="currentColor" y2="-200" stroke-opacity="0.1"/><text fill="currentColor" y="9" dy="0.71em">2.0</text></g></g><g aria-label="link" fill="none" stroke="currentColor" stroke-miterlimit="1" transform="translate(0.5,0.5)"><path d="M217.4727598018425,31.71218665951655L136.91468752766184,117.4725369975796"/><path d="M136.91468752766184,117.4725369975796L50,210"/><path d="M57.14059731441034,30L136.91468752766184,117.4725369975796"/><path d="M136.91468752766184,117.4725369975796L220,208.57583945786644"/></g><g aria-label="dot" fill="black" transform="translate(0.5,0.5)"><circle cx="217.4727598018425" cy="31.71218665951655" r="2"/><circle cx="57.14059731441034" cy="30" r="2"/><circle cx="50" cy="210" r="2"/><circle cx="220" cy="208.57583945786644" r="2"/><circle cx="136.91468752766184" cy="117.4725369975796" r="2"/></g><rect aria-label="frame" fill="none" stroke="currentColor" transform="translate(0.5,0.5)" x="40" y="20" width="190" height="200"/></svg>